<svg xmlns="http://www.w3.org/2000/svg" width="478.632" height="545" viewBox="0 0 478.632 545">
  <g id="Group_17" data-name="Group 17" transform="translate(-1372 -481)">
    <path id="Path_6" data-name="Path 6" d="M3706.857,7928.464s4.093,9.217-2.284,15.966-23.223,11.029-23.223,11.029-14.961,14.192,0,34.251,59.844,45.984,59.844,45.984l60.246-48.773-32-21.935-19.853,10.914-27.626-15.737,4.769-19.124Z" transform="translate(-2154 -7223)" fill="#ffd0d9"/>
    <ellipse id="Ellipse_1" data-name="Ellipse 1" cx="20.5" cy="27" rx="20.5" ry="27" transform="translate(1403 616)" fill="#ff8686"/>
    <g id="Character_ice-cream" data-name="Character/ice-cream" transform="translate(1177 434)">
      <path id="Combined-Shape" d="M475.436,149.018c3.094-.331,3.536,3.866,3.958,5.779,1.192-.753,2.254-.033,2.524-1.791,3.772,3.953,6.794,8.489,10.143,12.783,3.213,4.12,8.235,7.4,11.014,11.727,2.359,3.677-1.533,9.259-2.014,13.18-.543,4.418.611,9.475,3.629,12.844a9.453,9.453,0,0,0,5.224,3.093c2.075.421,4.048-.8,5.875-.537,1.516.215,1.582,1.217,2.111,2.706a11.872,11.872,0,0,0,3.36,5.406c1.913,1.6,3.967,2.065,5.426,4.219,1.273,1.879,2,3.7,3.97,5,2.635,1.741,6.862,2.266,6.577,6.331l1.359-1.08a70.6,70.6,0,0,0,4.038,9.818,7.252,7.252,0,0,1,1.058,3.932c-.025,1.09-.623,1.915.023,2.97,1.034,1.689,3.8,1.46,5.06,2.826,1.294,1.4-.049,3.3,1.446,4.52-.63.194-2.375,1.6-1.719,2.46.944,1.231,1.015-.455,1.677-.252,1.52.465,1.2,2.362,2.384,2.877.244.106.225-1.03.212-1.323V256.5l.915,1.786c7.7,14.908,16.731,29.109,23.988,44.232l.862,1.819a637.619,637.619,0,0,0,47.88,84.455c4.238,6.321,8.889,12.6,12.808,19.1,3.937,6.534,8.845,12.325,13.2,18.573,4.48,6.427,8.581,13.117,13.1,19.515,3.6,5.1,8,10.534,7.946,17.114-.027,2.924-.452,6.154-3.271,7.725-.068-1.206-1.892.128-2.327.424-1.883,1.281-.859,1.139-2.888.692-3.294-.727-6.106.257-9.153-1.615-6.462-3.971-12.832-8.053-19.41-11.842-14.219-8.188-28.3-16.573-41.486-26.359-23.058-17.108-48.11-32.438-69.3-51.9-21.174-19.446-43.4-38.738-68.522-52.961-1.685-.953-6.512-2.384-6.067-4.658.39-1.992,4.732-4.786,6.254-6.166,5.285-4.789,10.789-9.32,15.886-14.314,9.411-9.219,18.751-19.394,26.3-30.211,3.672-5.262,5.546-11.115,7.689-17.1,1.892-5.281,3.641-11.783.57-17.008a6.018,6.018,0,0,0-6.13-3.218c-2.272.152-2.17.617-3.071-1.793-.97-2.594-1.759-5.605-4.36-7.107-2.694-1.556-4.53.1-6.712,1.661-2.51-3.625-5.59-9.9-10.651-10.244-5.284-.362-8.286,6.166-10.111,10.093-5.4,11.61-12.417,22.456-19.967,32.8-8.184,11.207-16.551,22.608-25.569,33.161-1.909,2.234-4.077,5.495-6.767,6.85-2.759,1.391-5.049.085-7.382-1.516-5.5-3.77-10.842-7.642-16.565-11.094-6.339-3.824-12.855-7.326-19.32-10.929-2.852-1.589-5.558-3.5-8.5-4.93-2.738-1.33-5.72-1.989-8.523-3.153,10.293-3.069,21.135.951,30.878,4.14,5.057,1.655,10.344,3.378,15.743,2.933,4.669-.384,8.906-2.885,12.6-5.615,6.676-4.936,7.2-12.35,5.024-19.843-2.505-8.625-6.337-16.919-9.232-25.426-1.317-3.869-2.223-7.979.774-11.322,2.682-2.992,6.153-3.36,9.814-2.182,8.876,2.856,16.75,5.538,26.264,5.267,7.439-.212,16.9-2.323,21.912-8.368,2.747-3.314,2.852-7.87,2.863-11.98a102.416,102.416,0,0,0-.975-14.592c-1.217-8.6-4.372-17.22-.415-25.574C470.3,153.856,472.88,149.292,475.436,149.018ZM552.77,256.469v.028l0-.007C552.766,256.428,552.768,256.427,552.77,256.469Z" transform="translate(-9.206 -22.358)" fill="#ffd86f" fill-rule="evenodd"/>
      <g id="Ink" transform="translate(195 47)">
        <path id="ink-shape" d="M284.453,531.025c3.536-1.383,7.895-.737,11.6-.67,4.654.084,9.321.437,13.961.8,8.911.7,17.778.4,26.7,1.236,4.428.413,8.859.8,13.29,1.173,3.88.33,8.385,1.359,12.258.619,1.6-.306,5.915-1.81,5.115-4.152-.617-1.807-5.476-2.921-7.059-3.435-3.724-1.21-7.568-2.078-11.333-3.157a15.913,15.913,0,0,0-5.894-.957c-1.728.163-3.548,1.453-5.3,1.3-2.589-.219-3.923-3.47-5.822-4.9-3.023-2.283-5.265-1.063-7.582,1.453-1.714,1.86-3.346,4.675-6.158,4.842-3.577.212-4.273-2.855-2.695-5.456,1.454-2.4,5.413-4.852,5.625-7.839.135-1.888-2.885-6.938-4.622-7.657-2.922-1.208-7.052,1.99-9.694,2.971-4.614,1.713-9.323,3.23-13.995,4.778-3.2,1.058-7.936,1.152-8.54,4.9-.755,4.688.165,9.448.144,14.155M101.6,458.963c.929-2.058,1.9-3.229.047-5.139-1.038-1.068-2.5-1.593-3.525-2.7-1.535-1.665-3.942-6.217-.65-7.364,3.146-1.1,5.8,3.284,8.329,4.246,3.214,1.221,5.2-.826,5.664-3.9.591-3.946-.059-8.069.412-12.063.461-3.917,1.829-7.169,2.879-10.918.711-2.542,1.582-5.1-1.646-5.666-2.961-.517-6.395.713-9.4.878-4.682.257-9.421.493-14.064,1.2-5.185.784-5.09,6.085-6.392,10.42C80.1,438.46,75.866,448.77,73.9,459.6c-.85,4.671,1.4,7.87,4.024,11.543,3.282,4.6,6.7,9.184,10.414,13.444,2.482,2.845,5.279,5.494,8.894,6.8,4.095,1.482,5.659-.164,4.715-4.2-1.247-5.328-3.129-10.473-2.908-16.022.081-2.02.669-4.191-.788-5.882-1.01-1.173-2.742-1.568-4.06-2.281-2.174-1.178-5.542-4.966-1.306-5.781,2.876-.554,5.933,1.38,8.717,1.738m97.8-208.689c2.584,2.885,5.393,5.646,7.844,8.644,1.4,1.719,2.4,3.786,3.908,5.415,3.3,3.569,6.592-.385,9.516-2.7,11.5-9.092,22.322-18.944,33.279-28.675,5.221-4.636,10.774-8.913,15.911-13.637,5.2-4.785,9.537-10.388,14.412-15.487,2.341-2.448,5.144-4.877,6.59-8,1.233-2.667,1.505-5.569,2.91-8.207,2.433-4.567,6.895-9.87,5.871-15.394-3.013,3.158-8.031,14.476-13.287,9.168-3.752-3.788.08-9.388-.087-13.805-3.562,1.511-2.637,7.641-6.434,8.726-2.054.587-3.811-1.273-4.769-2.9-1.656-2.819-1.049-5.769-.3-8.759.513-2.037,3.784-8.758.549-9.588-2.8-.718-5.154,4.438-6.083,6.266-1.7,3.351-3.022,6.817-4.892,10.095-3.225,5.653-6.939,11.052-10.48,16.51A342.538,342.538,0,0,1,229.7,220.032c-9.138,11-19.03,21.38-30.3,30.242m81.02,35.75c-.369,9.9-8.877,17.41-16.237,22.915-9.407,7.036-18.085,15.032-29.3,19.036-4.319,1.542-9.713,1.1-11.443,5.959-.676,1.9-.062,2.6.671,4.512a50.388,50.388,0,0,1,2.38,9.39c1.85,10.719.051,21.634-6.389,30.559a67.079,67.079,0,0,1-12.322,12.454c-4.512,3.668-8.78,7.947-13.754,10.982-10.61,6.472-22.4,10.187-34.63,11.976-6.363.93-12.751,1.759-19.177,2.087-3.332.17-6.671.2-10,.055-1.49-.065-7.03-1.324-8.106-.47-.829.657-1.2,4.636-1.364,5.733-.352,2.321-.63,4.61-1.109,6.91-.962,4.618-2.26,9.843-.84,14.5.411,1.347.743,2.445,1.991,2.9.791.287,2.192-.218,2.992-.3a25.15,25.15,0,0,1,5.336-.066c5.97.632,11.833,2.158,17.868,1.742,12.864-.886,25.741-1.792,38.488-3.8,6.2-.979,12.149-2.832,18.247-4.263,5.811-1.364,11.62-2.741,17.044-5.3a124.157,124.157,0,0,0,29.222-19.44c9.366-8.305,15.567-18.15,21.426-29.136,5.147-9.65,9.487-19.419,9.262-30.544-.143-7.041-1.152-15.764,2.918-21.973,1.86-2.836,5.611-5.465,9.105-3.965,6.343,2.722.351,8.113-2.068,11.066-3.485,4.255-3.016,10.733-3.377,15.936-.427,6.14-1.807,11.525-3.152,17.463-1.316,5.811,1.339,12.706,1.6,18.634.285,6.429.1,12.864.026,19.3-.143,12.791.451,25.548.407,38.337-.023,6.633.146,13.3-.273,19.923-.382,6.04-1.619,11.818-2.7,17.748-1.063,5.821-2.612,12.791-2.254,18.708,14.533-5.532,28.68-12.067,43.437-17.009-4.6-4.013-4.808-9.685-5.179-15.345-.489-7.464-1.718-14.865-2.254-22.328a291.972,291.972,0,0,1,.493-44.971c1.347-15.808,3.734-31.563,4.225-47.438a118.145,118.145,0,0,0-1.6-22.86c-1.05-6.358-1.961-14.358-5.276-19.991-3.168-5.382-8.991-8.8-13.851-12.468-7.106-5.361-13.688-11.39-20.47-17.146m.88-206.763a59.287,59.287,0,0,0,6.051,6.88c2.245,2.218,3.2,1.728,5.887.574,5.341-2.3,5.239-4.95,2.257-9.552-6.915-10.674-9.538-23.384-16.855-33.84-7.21-10.3-17.7-18.624-28.705-24.565-11.814-6.374-24.617-8.4-37.934-8.212-6.805.1-13.654.567-20.417,1.33-6.579.741-12.43,2.9-18.8,4.53-3.205.82-6.512,1.5-9.628,2.628-2.735.989-5.193,2.515-7.956,3.439a86.8,86.8,0,0,0-17.591,7.584,127.672,127.672,0,0,0-14.988,10.647c-5.018,4.109-9.376,8.885-14.8,12.492-4.941,3.286-8.869,7.711-13.349,11.56A74.91,74.91,0,0,0,81.963,78.792c-3.433,4.97-4.74,11.4-6.814,17.005-2.414,6.523-4.808,13.5-5.718,20.413-1.695,12.888,2.109,27.952,6.945,39.879,4.783,11.8,12.536,21.639,21.786,30.276a66.469,66.469,0,0,0,14.943,10.851c4.716,2.41,10.866,6.742,16,3.715,2.079-1.226,3.765-2.651,6.168-3.2,2.626-.6,5.2-.356,7.319-2.282,1.8-1.636,2.664-3.611,5.03-4.6a23.937,23.937,0,0,1,9.127-1.376c6.746.022,13.5,1.711,19.933,3.583,5.9,1.716,10.837,4.3,17.1,2.735,4.657-1.165,12.128-4.262,13.131-9.6.9-4.772-2.565-10.941-4.309-15.212a126.34,126.34,0,0,1-6.107-17.911c-1.2-4.916-3.085-12.781.3-17.274,3.328-4.415,11.023-4.362,15.8-3.252,3.133.727,6.014,2.193,9.148,2.932a83.465,83.465,0,0,0,9.756,1.5c11.289,1.277,27.351-1.61,26.75-16.036-.535-12.857-7.62-25.746-3.471-38.619,1.691-5.247,5.145-11.315,10.9-12.7a21.8,21.8,0,0,1,14.753,2.439c3.23,1.915,6.43,5.926.861,7.207M54.592,136.691c-11.38,2.22-18.906,14.216-20.992,24.853-.945,4.82-1.279,10.56.549,15.224,2.107,5.377,8.062,7.62,13.316,8.748,6.007,1.289,11.33.786,16.092-3.379a29.72,29.72,0,0,0,5.371-6.3c1.538-2.384,3.678-4.12,2.131-6.784a115.5,115.5,0,0,1-9.631-20.347,88.115,88.115,0,0,1-2.876-9.744c-.594-2.65-.881-4.268-3.96-2.276m99.667,72a23.518,23.518,0,0,1-7.574,4.95c-3.118,1.25-4.064.65-3.909,4.256.171,3.983.2,7.17-1.615,10.876-.85,1.735-3.989,4.076-3.4,6.027.851,2.8,9.568,5.633,12.11,6.612,6.084,2.344,13.183,2.392,18.925-.92,6.671-3.847,7.261-10.82,4.748-17.568-.268-.72-1.243-1.937-1-2.723.44-1.441,2.253-1.233,3.293-.683,2.258,1.195,3.2,4.828,3.688,7.1a18.2,18.2,0,0,1-5.62,16.791,26.164,26.164,0,0,1-13.3,5.774c-1.423.143-3.221-.306-4.58.1-2.4.714-2.5,3.669-3.1,5.828a52.552,52.552,0,0,0-1.657,12.033c-.227,6.46.542,14.689,4.258,20.166,8.67,12.777,25.436,17.212,38.527,23.787a127.583,127.583,0,0,1,19.607,12.581,17.424,17.424,0,0,0,2.262,1.734c2.484,1.222.315.777,1.9-.03,1.224-.622,2.272-1.971,3.537-2.675,2.913-1.621,6.185-2.5,9.148-4.029a126.306,126.306,0,0,0,19.1-12.7c6.265-4.836,12.611-9.25,18.326-14.754,2.41-2.32,5.124-4.233,7.569-6.454,2.463-2.237-.689-3.166-2.774-4.813-7.1-5.605-14.107-11.388-21.686-16.343-2.529-1.653-4.758-3.882-7.4-5.343-2.755-1.525-4.389-.159-6.559,1.781a73.039,73.039,0,0,1-7.271,6.012c-3.485,2.4-7.537,3.55-11.042,5.831,2.25,2.355,7.735,3.143,8.531,6.71.807,3.615-4.576,6.436-7.093,7.833a51.822,51.822,0,0,1-14.3,5.032c-4.12.89-10.227-.45-13.529,2.66-.941-1.991-1.824-3.031-.274-4.935s4.306-2.229,6.49-2.96c5.9-1.976,11.707-4.609,17.413-7.077-.757-1.772-2.65-2.986-4.094-4.14a36.442,36.442,0,0,1-5.468-5.524c-3.2-3.91-6.069-8.08-9.117-12.1-1.322-1.745-2.527-3.488-4.941-2.522-2.13.853-4.21,3.066-6.258,4.212-4.63,2.592-8.681,5.081-13.778,6.73-2.054.665-10.463,2.557-8.227-2.584.663-1.524,2.879-2.151,4.244-2.818,2.522-1.232,5.036-2.488,7.466-3.894,4.992-2.889,9.394-6.622,14.064-9.983,5.152-3.707,10.391-7.305,15.228-11.425-4.813-3.188-10.152-5.522-15.129-8.439-5.03-2.947-10.1-5.611-15.3-8.23a92.156,92.156,0,0,1-12.131-7c-1.5-1.071-6.668-5.524-8.314-2.737m151.33-103.688q-.95.239-1.881.542c4.219,6.45-.439,14.436.882,21.417,3.9-2.3,4.405-11.263,10.319-9.607,6.37,1.784,3.2,9.624,5.128,14.109,3.011-2.631,6.526-.172,7.768,2.949,1.345,3.383-.52,6.5.107,9.852.648,3.464,2.584,1.191,3.656-.852,1.367-2.6,2.562-6.124,2.058-9.1-.613-3.623-3.045-6.991-4.552-10.281a50.794,50.794,0,0,0-5.081-9.506c-4.1-5.493-11.231-10.427-18.4-9.521m40.8,77.356c-2.754-6.875-6.83-13.171-9.435-20.1-.762-2.026-1.187-5.257-3.2-6.5-1.324-.82-3.085-.328-4.545-.769a10.14,10.14,0,0,1-4.033-2.568c-1.909-1.978-2.529-4.692-4.78-6.415-2.906-2.223-5.151-3.076-6.534-6.79-1.085-2.917-1.088-3.345-4.35-2.694a8.7,8.7,0,0,1-8.912-2.942c-4.161-4.71-4.621-11.347-2.579-17.033.955-2.659,2.617-5.752,1.236-8.536-1.282-2.586-4.4-4.443-6.369-6.5C287.9,96.3,284,90.2,279.324,84.733a27.863,27.863,0,0,1-3.126-4.112c-.548-.952-.871-2.59-2.141-2.86-2.186-.464-5.238,3.316-6.338,4.693-8.049,10.075-2.29,23.8-1.31,35.156.5,5.784,1.621,12.719-.944,18.165-2.417,5.132-8.535,7.694-13.691,9.123a50.333,50.333,0,0,1-21.5.672,56.412,56.412,0,0,1-10.772-2.985c-3.59-1.357-7.324-3.69-10.982-1.228-4.722,3.179-3.263,9.555-2.226,14.2,1.694,7.592,4.653,14.673,7.27,21.966,2.2,6.126,3.978,13.811-.643,19.292a25.079,25.079,0,0,1-19.393,8.616c-14.769-.589-28.252-11.6-43.344-7.1,2.836,1.172,5.834,1.861,8.6,3.2,3.345,1.62,6.441,3.772,9.688,5.574,6.233,3.458,12.488,6.866,18.58,10.57,5.5,3.347,10.708,7.014,15.962,10.723,6.546,4.622,9.994-.5,14.194-5.49,9.168-10.9,17.9-22.437,26.225-33.986a197.81,197.81,0,0,0,19.2-31.739c1.874-4.014,5.029-10.822,10.512-10.03,4.868.7,7.707,6.576,10.223,10.171,1.756-1.258,3.261-2.941,5.632-2.248,1.966.574,3.326,2.591,4.2,4.312.6,1.183,1.006,5.169,2.007,5.769.711.427,3.432-.491,4.645-.21,4.15.959,5.476,6.293,5.434,10-.059,5.1-2.191,10.209-3.938,14.934-3.917,10.593-10.626,18.871-18.024,27.242a278.487,278.487,0,0,1-23.833,23.732q-3.134,2.791-6.2,5.659c-1.671,1.572-4.316,3.208-5.624,5.055-2.42,3.418,4.053,4.969,6.462,6.22,10.364,5.382,19.914,12.47,29.041,19.7,9.412,7.454,18.877,14.936,27.921,22.834,8.848,7.726,17.2,15.96,26.521,23.145,9.572,7.381,19.6,14.2,29.438,21.219s19.427,14.427,29.261,21.466c9.611,6.879,19.927,12.776,30.036,18.884,5.288,3.2,10.6,6.345,15.916,9.5,4.3,2.551,8.958,6.515,14.051,6.837,4.589.29,8.941,1.979,11.684-3.01,2.082-3.787,1.219-9-.6-12.677-2.225-4.491-5.706-8.62-8.5-12.776-3.215-4.779-6.2-9.7-9.374-14.5-3.043-4.605-6.425-8.857-9.82-13.2-3.442-4.4-6.053-9.361-9.121-14.02-6.556-9.96-13.3-19.741-19.514-29.924-14.256-23.355-27.023-47.466-39.224-71.938-1.075-2.156-26.155-46.586-25.453-46.969m-20.072,143.59c7.662,26.483,3.243,53.413,1.672,80.355-.794,13.622-.915,27.329-1.267,40.969-.171,6.631-.16,13.267.116,19.895.139,3.334.383,6.657.62,9.985.21,2.943-.58,6.2-.208,9.035.476,3.637,7.7,4.351,5.478,9.018-1.488,3.131-6.7,3.61-9.492,4.93,1.241,1.438,3.183,3.589,5.254,3.724,1.865.122,3.3-1.5,4.977-2.107,1.484-.543,3.526-1.07,4.463.663.981,1.814-1.074,3.83-1.887,5.236,2.764.535,4.675-1.115,7.167-.964,2.623.159,2.742,2.74,4.465,4.233,1.971,1.708,5.413,2.075,7.843,2.794a39.7,39.7,0,0,1,8.243,3.322,23.786,23.786,0,0,1,10.257,12.507c1.763,5.2-.99,9.695-5.09,12.884-1.528,1.188-3.718,2.568-5.744,1.928-2.315-.732-2.677-2.617-5.5-2.477-2.534.125-4.94,1.138-7.488,1.267-3.745.191-7.486-.491-11.235-.347-15.127.581-30.256.71-45.358-.745-3.908-.376-7.737-.684-11.589-.807-3-.1-3.246-2.33-3.753-5.134-1.226-6.773,1.485-13.441.143-20.022.089.434-2.031-.7-2.287-.911-1.557-1.31-2.077-3.172-2.54-5.106a50.868,50.868,0,0,1-.84-15.653c.868-11.924,3.087-23.738,2.9-35.725-.092-6.042.091-12.069.093-18.109,0-5.548.5-11.023.55-16.532.1-12.079,1.374-24.023,1.728-36.089-2.514,2.446-3.848,5.856-5.445,8.908a107.311,107.311,0,0,1-6.555,10.959c-4.953,7.212-11.6,13.08-18.485,18.4-13.139,10.153-27.414,18.016-43.512,22.323A329.322,329.322,0,0,1,151,458.14a64.413,64.413,0,0,1-12.526.226c-2.728-.265-7.162-2.469-9.754-1.35-2.946,1.271-3.538,4.328-7.4,3.471-1.474-.327-2.541-1.312-3.832-1.975-1.9-.977-1.974-.3-3.786-.178-2.021.139-3.232-.87-4.993.756-1.5,1.382-1.351,2.349.016,3.643,1.92,1.817,4.993,2.122,6.915,4.02,1.87,1.846,1.535,4.115-1.353,4.143-2.907.027-5.489-2.041-8.329-2.311.605,8.4,3.133,17.787.33,26.03-1.3,3.824-4.091,6.287-8.252,6.261-6.963-.044-13.071-6.45-17.264-11.439-2.318-2.758-4.2-5.857-6.436-8.683-2.288-2.889-4.743-5.794-6.053-9.289-1.394-3.718-.987-7.448-.207-11.264.964-4.724,1.861-9.495,3.026-14.173,2.26-9.072,6.807-17.354,9.1-26.4.868-3.422.857-7.438,3.049-10.372,2.32-3.107,5.93-3.306,9.51-3.108,4.431.246,8.859.736,13.267,1.237,2.783.316,8.882,2.324,11.147.613.78-.589.781-2.132,1.693-2.665.879-.514,2.3-.145,3.26-.073,4.759.353,9.56.782,14.328.921,17.724.518,36.427-2.244,52.252-10.478,7.344-3.821,12.938-9.836,18.84-15.518,5.8-5.586,10.862-11.6,12.424-19.71a49.03,49.03,0,0,0-1.482-23.427c-2.306-6.982-10.493-11.21-16.451-14.653a183.769,183.769,0,0,0-25.937-12.157c-1.413-.544-3.131-1.236-4.685-.958-1.905.341-3.186,1.992-4.918,2.721-2.061.867-4.589.871-6.763,1.377-2.108.49-4.163,1.165-6.311,1.489-6.762,1.02-16.266.206-21.854-4.114-9.136-7.06-3.616-17.052-.681-25.645-3.1-.105-5.687.621-8.648-.707a13.2,13.2,0,0,1-6.6-6.6c-2.448-5.339-1.034-11.474-.312-17.041a29.377,29.377,0,0,1,1.659-7.379c.744-1.831,1.965-3.576,2.416-5.513.5-2.133-.147-2.257-1.927-3.277a16.743,16.743,0,0,1-6.395-6.141,17.22,17.22,0,0,1-.675-16.993c1.091-2.3,3.692-5.466,3.4-8.154-.254-2.313-2.872-4.113-4.413-5.628A168.337,168.337,0,0,0,94.3,194.6a86.354,86.354,0,0,1-7.426-5.8c-1.643-1.586-3.312-5.038-5.558-5.872S77.566,184.6,76,185.95a89.865,89.865,0,0,1-7.442,6.331c-4.772,3.262-10.69,2.652-16.079,1.61a42.648,42.648,0,0,1-15.651-6.169c-1.907-1.257-4.134-3.809-6.483-4.014-2.508-.218-5.233,2.275-7.025,3.772-4.68,3.908-6.085,9.978-8.81,15.228A30.863,30.863,0,0,0,11,221.247c.745,5.93,3.029,10.41,6.427,15.2.7.991,2.347,2.862,1.145,3.958-1.471,1.341-4.485-1.348-5.473-2.216C3.289,229.559-2.287,216.558.9,203.543a64.642,64.642,0,0,1,8.937-19.467c1.651-2.558,3.262-5.115,6.134-6.419,3.269-1.485,6.973-1.308,10.465-1.664C24.019,164.169,23.263,151.3,30.685,141c5.7-7.907,17.359-14.826,26.6-8.414-.379-8.717-1.621-16.994.7-25.576A62.718,62.718,0,0,1,62.2,95.842c1.715-3.508,4.083-6.482,5.468-10.134,5.465-14.4,15.952-27.268,27.153-37.6,11.323-10.449,22.432-23.2,36.694-29.733,14.88-6.821,30.033-12.95,46.165-16.049C194.425-.9,211.636-1.556,228.5,1.49c14.787,2.67,28.472,11.648,39.661,21.327C280.933,33.861,289.175,47.176,295.7,62.6c1.432,3.388,2.814,6.8,4.57,10.043,1.949,3.593,4.453,6.933,5.886,10.789,1.278,3.438,1.493,7.167-.784,10.239-1.6,2.16-4.884,2.647-6.284,4.623-.707,1-.636,1.944.918,2.241,1.6.306,2.368-1.482,3.522-2.2,2.87-1.787,6.92-.264,9.822.75A32.536,32.536,0,0,1,329.731,111.8c3.941,5.732,6.558,12.243,9.159,18.653A72.852,72.852,0,0,1,343,142.8c.34,1.612.814,5.981-1.733,4.067-1.033-.776-2.509,5.114-2.231,6.052.969,3.262,4.423,6.321,6.456,8.962,4.78,6.209,7.981,13.165,11.353,20.187,7.3,15.207,15.436,29.97,23.249,44.914,15.912,30.432,33.3,59.695,51.541,88.782q13.556,21.617,28.014,42.579c4.263,6.179,8.538,12.361,12.708,18.6,3.544,5.3,7.041,11.21,6.129,17.83-.835,6.061-4.436,10.93-10.259,12.912-3.12,1.062-6.825,2.287-10.165,1.961-3.652-.357-6.874-2.8-9.918-4.634q-20.983-12.645-41.976-25.267c-15.654-9.411-29.971-20.585-44.907-31.048-7.6-5.324-15.435-10.122-23.354-14.941-1.783-1.085-9.873-8.861-11.588-7.8" transform="translate(0 0.476)" fill-rule="evenodd"/>
        <path id="ink-shape-2" data-name="ink-shape" d="M222.557,449.85c-3.824,5.63-7.844,10.921-13.227,15.193a126.6,126.6,0,0,1-17.93,11.637c-11.165,6.158-26.13,11.61-39.1,8.819-3.688-.794-9.587-4.02-6.381-8.627,1.611-2.315,5.068-1.711,7.515-1.584,3.942.206,7.39.43,11.167-.9,6.94-2.438,13.929-4.737,20.706-7.607,6.564-2.78,12.321-6.593,18.344-10.339,5.648-3.513,9.956-7.718,14.918-11.964,1.359-1.163,3.7-3.2,4.981-.937.929,1.634-.485,4.707-.995,6.3" transform="translate(-31.784 -96.628)" fill-rule="evenodd"/>
        <path id="ink-shape-3" data-name="ink-shape" d="M8.408,68.742c-1.236,2.146-3.981,6.309-6.979,4.513-3.824-2.291,1.133-9.6,2.065-12.361C7.556,48.884,7.841,36.019,5.849,23.6,4.859,17.427,3.065,11.4,2.389,5.171c-.131-1.21-.737-4.312.781-5.02,1.823-.85,3.651,2.1,4.245,3.4,2.3,5.014,3.186,11.6,4.416,16.963a98.819,98.819,0,0,1,2.746,21.852C14.594,51.257,12.895,60.947,8.408,68.742Z" transform="matrix(0.94, -0.342, 0.342, 0.94, 313.868, 21.098)" fill-rule="evenodd"/>
        <path id="ink-shape-4" data-name="ink-shape" d="M6.479,14.831c-.367,2.205-.533,8.509-4.066,7.787C-1.593,21.8.634,12.007.482,9.142.4,7.632-.467.793,1.535.1,5.7-1.337,6.321,12.891,6.479,14.831" transform="matrix(0.94, -0.342, 0.342, 0.94, 342.307, 30.569)" fill-rule="evenodd"/>
        <path id="ink-shape-5" data-name="ink-shape" d="M203.7,432.64c-3.838,3.5-8.294,3.292-13.139,2.959-2.46-.169-8.158-1.626-4.2-4.677,2.068-1.594,18.3-2.69,17.338,1.718" transform="translate(-40.552 -93.779)" fill-rule="evenodd"/>
        <path id="ink-shape-6" data-name="ink-shape" d="M592,514.866c.273-.543,2.576-3.148,3.073-2.094.469.993-2.465,2.065-3.073,2.094" transform="translate(-129.765 -111.972)" fill-rule="evenodd"/>
        <path id="ink-shape-7" data-name="ink-shape" d="M200.123,267.611c-.472.974-2.444.124-3.123.271.923-1.976,2.02-1.553,3.123-.271" transform="translate(-43.182 -58.05)" fill-rule="evenodd"/>
        <path id="ink-shape-8" data-name="ink-shape" d="M390.562,135.524q-.308,1.171-.615,2.342L389,136.111l1.562-.588" transform="translate(-85.268 -29.335)" fill-rule="evenodd"/>
        <path id="ink-shape-9" data-name="ink-shape" d="M388.632,306.718c4.926.5,9.869.749,14.815.9,4.174.128,5.889-.661,6.422-5,.632-5.144.848-10.334,1.479-15.48.286-2.338,2.554-7.01-.177-8.261-2.289-1.048-5.86.454-8.258.63-2.671.2-6.7-.618-9.063.966-2.524,1.693-1.975,7.621-2.405,10.4-.82,5.3-1.808,10.572-2.813,15.842m-2.35-24.983c-4.465.337-8.945.6-13.4,1.079-1.981.212-5.992,1.192-7.662-.249-3.921-3.384,10.732-4.571,12.394-4.838,2.8-.45,7.6.148,9.391-2.5,1.776-2.615,1.327-7.01,1.787-10.047.691-4.57,1.481-9.134,1.942-13.734.155-1.546-.066-6.653,1.566-7.412,3.752-1.744,2.573,16.231,2.512,17.58-.105,2.32-.221,4.65-.544,6.951-.183,1.3-.823,3.05-.428,4.353,1.132,3.735,7.559,1.581,10.486,1.283,3.281-.334,8.348.937,9.434-3.111,1.365-5.088,1.166-10.866,1.672-16.1.14-1.448.506-12.258,3.173-11.421,2.979.936,1.816,9.97,1.789,12.3-.031,2.625-.02,5.251-.2,7.872-.159,2.354-.823,5.24-.332,7.572.861,4.089,5.709,1.915,7.116,5.167,1.337,3.092-5.952.668-7.313,1.73-2.032,1.586-1.543,8.212-1.834,10.531-.637,5.1-1.861,10.388-2.259,15.469-.314,4.01,2.911,3.478,6.191,3.188,2.814-.249,5.905-.917,8.725-.542,2.266.3,5.432,2.389,2.133,3.778-5.158,2.173-15.66-2.266-18.251,4.333-.489,1.245-2.763,15.68-5.621,8.554-1.194-2.979,1.73-7.652-1.388-9.934-1.081-.792-2.693-.652-3.947-.74-3.09-.215-6.2-.289-9.294-.353s-5.86-.685-7.052,2.7c-.929,2.634-.826,5.582-1.567,8.277-.556,2.021-2.384,5.558-4.279,2.252-1.245-2.171-.292-5.966-.046-8.327.123-1.182.827-3.629-.07-4.621-.963-1.066-3.539-.489-4.757-.393-3.516.278-10.064,1.971-12.755-1.218-2.251-2.668,2.429-2.719,4.269-2.9,1.9-.186,3.792-.358,5.687-.557,2.085-.22,4.847.074,6.809-.58,3.3-1.1,3.061-5.58,3.278-8.487.423-5.679,1.7-11.288,2.639-16.9" transform="translate(-79.569 -53.008)" fill-rule="evenodd"/>
        <path id="ink-shape-10" data-name="ink-shape" d="M465.685,307.892A43.123,43.123,0,0,1,464,317.962c-.8,2.355-2.418,3.071-2.97.072-.349-1.9,1.973-12.612,4.65-10.143" transform="translate(-101.05 -67.037)" fill-rule="evenodd"/>
        <path id="ink-shape-11" data-name="ink-shape" d="M198.361,278.631c-1.315-.944-7.541-5.909-3.041-6.105,2.3-.1,7.249,3.68,7.391,5.777.036.53-1.1.8-1.035,1.316.117.975,1.561,1.437,2.026,2.212,1.026,1.71.6,5.088-.724,6.714-3.02,3.707-6.374-2.569-4.036-3.8-.521.274-7.512-3.28-7.775-4.082-1.438-4.4,6.841-.255,7.194-2.031" transform="translate(-41.867 -59.365)" fill-rule="evenodd"/>
        <path id="ink-shape-12" data-name="ink-shape" d="M212.625,300.1c-1.6.05-4.8-.061-6-1.2-2.224-2.119,2.113-2.4,3.382-3.388,1.779-1.383,2.128-5.883,4.92-3.1,2.769,2.762.334,5.974-2.3,7.688" transform="translate(-45.155 -63.53)" fill-rule="evenodd"/>
        <path id="ink-shape-13" data-name="ink-shape" d="M185,287.545c2.887-.423,9.311,5.8,6.194,6.215-2.063.274-5.743-4.551-6.194-6.215" transform="translate(-40.552 -62.653)" fill-rule="evenodd"/>
      </g>
    </g>
  </g>
</svg>
